<?xml version="1.0" standalone="no"?>
<!DOCTYPE svg PUBLIC "-//W3C//DTD SVG 20010904//EN"
 "http://www.w3.org/TR/2001/REC-SVG-20010904/DTD/svg10.dtd">
<svg version="1.0" xmlns="http://www.w3.org/2000/svg"
 width="700.000000pt" height="700.000000pt" viewBox="0 0 700.000000 700.000000"
 preserveAspectRatio="xMidYMid meet">
<metadata>
Created by potrace 1.14, written by Peter Selinger 2001-2017
</metadata>
<g transform="translate(0.000000,700.000000) scale(0.100000,-0.100000)"
fill="#000000" stroke="none">
<path d="M3270 6989 c-110 -11 -191 -20 -222 -25 -16 -2 -43 -6 -60 -9 -265
-43 -511 -109 -748 -202 -896 -353 -1539 -1020 -1842 -1913 -54 -158 -120
-415 -144 -560 -2 -14 -7 -41 -10 -60 -3 -19 -8 -51 -10 -70 -2 -19 -8 -64
-13 -100 -6 -36 -13 -108 -16 -160 -4 -52 -9 -115 -11 -140 -5 -60 -5 -520 1
-590 32 -427 96 -753 209 -1080 343 -986 1104 -1672 2168 -1955 54 -14 121
-30 150 -36 29 -6 71 -15 93 -19 22 -5 58 -11 80 -14 23 -4 51 -8 64 -11 13
-2 49 -7 80 -10 31 -4 63 -8 71 -10 102 -26 760 -26 922 0 13 2 48 6 78 9 30
4 66 8 80 11 14 2 41 6 60 9 19 3 60 10 90 16 30 6 66 13 80 16 112 21 428
116 527 159 575 250 961 592 1232 1094 28 52 51 95 51 97 0 1 13 31 29 66 116
250 194 550 226 863 6 59 8 205 3 210 -2 2 -55 7 -118 10 -63 3 -142 8 -175
10 -33 2 -107 7 -165 10 -58 3 -132 8 -165 10 -33 2 -116 7 -185 10 -69 4
-150 8 -180 10 -30 2 -104 7 -165 10 -60 3 -141 8 -180 10 -38 2 -113 7 -165
10 -52 3 -134 7 -182 10 l-88 5 -1 -52 c0 -29 -2 -61 -4 -71 -2 -10 -9 -51
-16 -90 -46 -279 -202 -525 -424 -671 -198 -130 -432 -190 -740 -190 -163 0
-237 12 -369 55 -175 59 -290 131 -427 268 -231 232 -392 575 -478 1016 -10
55 -22 121 -25 148 -12 96 -16 133 -21 192 -7 72 -7 370 -1 405 2 14 7 66 11
115 4 50 8 92 10 95 2 3 6 30 10 60 3 29 8 56 10 59 2 4 6 27 10 51 23 161
112 428 197 593 130 253 327 462 533 565 175 87 313 116 545 116 286 0 483
-53 680 -183 233 -153 423 -445 481 -741 7 -36 15 -68 18 -72 3 -4 423 -10
932 -13 l927 -6 -4 53 c-17 272 -92 560 -216 837 -314 703 -847 1241 -1513
1528 -174 75 -456 163 -600 187 -16 3 -70 12 -120 20 -49 8 -115 18 -145 21
-30 3 -71 8 -90 11 -59 8 -540 11 -620 3z"/>
</g>
</svg>
